<?xml version="1.0" standalone="no"?>
<!DOCTYPE svg PUBLIC "-//W3C//DTD SVG 20010904//EN"
 "http://www.w3.org/TR/2001/REC-SVG-20010904/DTD/svg10.dtd">
<svg version="1.0" xmlns="http://www.w3.org/2000/svg"
 width="628.000000pt" height="628.000000pt" viewBox="0 0 628.000000 628.000000"
 preserveAspectRatio="xMidYMid meet">
<metadata>
Created by potrace 1.14, written by Peter Selinger 2001-2017
</metadata>
<g transform="translate(0.000000,628.000000) scale(0.100000,-0.100000)"
fill="#000000" stroke="none">
<path d="M3050 6239 c-36 -22 -73 -42 -82 -45 -10 -4 -18 -10 -18 -15 0 -5 -5
-9 -10 -9 -6 0 -106 -56 -224 -125 -118 -68 -229 -133 -247 -143 -49 -28 -454
-263 -589 -342 -63 -37 -130 -76 -149 -86 -18 -11 -41 -23 -50 -29 -14 -9
-174 -102 -224 -130 -98 -56 -658 -382 -677 -394 -14 -8 -34 -21 -45 -27 -11
-6 -47 -27 -80 -46 -33 -20 -103 -60 -155 -90 l-95 -54 0 -1574 0 -1575 40
-22 c42 -24 84 -47 123 -66 12 -7 22 -15 22 -19 0 -5 5 -8 11 -8 5 0 127 -68
270 -150 143 -83 265 -150 270 -150 5 0 9 -4 9 -10 0 -5 4 -10 10 -10 5 0 31
-13 58 -29 26 -15 68 -39 93 -53 24 -14 118 -68 209 -120 91 -52 185 -106 210
-120 77 -43 314 -180 340 -197 14 -8 27 -16 30 -16 3 0 48 -26 100 -56 52 -31
109 -64 125 -73 33 -18 30 -16 128 -75 38 -23 74 -41 82 -41 7 0 15 -4 17 -8
3 -8 339 -204 396 -231 17 -8 32 -19 32 -23 0 -4 5 -8 11 -8 6 0 37 -16 68
-35 l58 -36 59 32 c32 18 64 35 69 39 12 9 86 50 175 98 36 19 72 40 80 47 8
7 22 15 30 18 8 4 42 22 75 41 33 19 88 49 123 67 34 18 62 36 62 41 0 4 5 8
10 8 6 0 73 35 148 78 75 43 144 81 152 85 8 4 31 17 50 28 19 12 109 63 200
114 91 51 181 103 200 114 19 11 41 24 49 28 8 3 58 31 110 61 53 30 119 68
148 83 28 16 106 60 174 99 67 38 126 70 131 70 4 0 8 5 8 12 0 6 3 8 6 5 4
-4 19 2 33 12 14 10 49 30 76 45 28 15 66 36 85 48 19 11 55 32 80 45 59 32
139 77 278 157 35 20 68 36 72 36 5 0 10 3 12 8 2 4 17 15 33 24 l30 17 3
1569 2 1570 -27 18 c-16 10 -30 19 -33 19 -6 1 -143 80 -192 111 -21 13 -40
24 -43 24 -3 0 -35 18 -71 40 -36 22 -70 40 -74 40 -5 0 -15 6 -22 13 -7 7
-24 18 -38 24 -14 7 -47 26 -75 43 -27 16 -57 33 -65 37 -8 4 -53 29 -100 56
-118 69 -148 86 -200 115 -25 14 -98 56 -162 93 -64 37 -140 81 -170 97 -29
17 -93 53 -143 82 -49 29 -162 93 -250 142 -88 50 -161 95 -163 99 -2 5 -12 9
-23 9 -10 0 -19 5 -19 10 0 6 -4 10 -9 10 -5 0 -75 38 -156 85 -80 47 -148 85
-150 85 -3 0 -195 111 -225 130 -14 9 -58 34 -165 93 -22 12 -42 24 -45 27 -8
8 -141 81 -144 79 -1 0 -30 -18 -66 -40z m389 -1889 c-12 -8 -101 -62 -198
-119 -97 -57 -214 -126 -261 -154 -47 -27 -98 -57 -115 -67 -16 -9 -79 -46
-140 -82 -149 -88 -503 -297 -540 -318 -16 -9 -55 -32 -85 -50 -30 -18 -68
-41 -85 -50 -16 -10 -104 -61 -195 -115 -91 -53 -211 -124 -268 -157 -57 -33
-101 -62 -98 -65 2 -3 13 0 25 6 11 6 60 25 108 42 48 17 102 36 118 43 17 8
59 24 95 36 36 12 72 24 80 27 8 3 20 7 25 9 6 2 84 31 174 64 l164 61 38 -26
c21 -14 40 -25 42 -25 3 0 58 -32 123 -72 66 -39 133 -79 151 -89 17 -10 132
-77 255 -150 123 -73 261 -155 308 -182 47 -27 97 -57 112 -66 14 -9 61 -36
102 -60 42 -25 76 -48 76 -52 0 -8 -237 -160 -297 -191 -13 -6 -23 -15 -23
-20 0 -4 -7 -8 -15 -8 -8 0 -15 -4 -15 -10 0 -5 -5 -10 -10 -10 -6 0 -58 -31
-116 -70 -59 -38 -109 -70 -111 -70 -3 0 -17 -9 -32 -19 -33 -24 -11 -34 -261
119 -102 62 -197 120 -212 129 -14 9 -59 36 -100 61 -84 52 -86 53 -170 103
-91 54 -102 61 -108 68 -3 3 -10 8 -15 10 -23 9 -210 124 -213 131 -2 5 -7 8
-12 8 -5 0 -46 23 -92 51 -178 110 -210 129 -219 129 -4 0 -7 182 -6 406 l2
406 110 69 c61 38 116 72 124 76 15 7 534 321 621 376 30 19 152 93 270 164
118 72 252 153 298 182 46 28 88 51 93 51 5 0 9 5 9 10 0 6 5 10 10 10 6 0 63
33 128 73 64 40 162 100 217 132 55 33 102 62 105 65 3 3 14 10 25 16 20 11
20 8 23 -405 2 -415 2 -416 -19 -431z m94 -427 c9 -3 17 -10 17 -16 0 -6 3 -8
6 -4 3 3 27 -8 52 -24 25 -16 51 -29 58 -29 7 0 14 -3 16 -7 2 -5 21 -18 43
-29 51 -27 513 -280 625 -342 25 -13 74 -40 110 -60 36 -19 108 -58 160 -87
52 -29 124 -70 160 -89 36 -20 82 -44 102 -53 l37 -17 3 -88 c2 -48 0 -98 -3
-110 -3 -13 -2 -40 1 -60 4 -20 4 -41 1 -46 -3 -6 -4 -51 -1 -101 3 -50 2
-101 -1 -113 -3 -13 -2 -40 1 -60 4 -20 4 -41 1 -47 -4 -5 -4 -40 -1 -78 9
-123 5 -138 -48 -171 -26 -16 -63 -38 -82 -48 -19 -11 -41 -25 -48 -31 -7 -7
-19 -13 -27 -13 -7 0 -15 -4 -17 -8 -1 -4 -83 -55 -181 -112 -97 -58 -223
-133 -280 -167 -56 -35 -109 -66 -117 -70 -13 -6 -220 -128 -260 -153 -8 -5
-44 -26 -80 -46 -36 -21 -67 -40 -70 -43 -3 -3 -25 -17 -50 -30 -25 -14 -47
-27 -50 -30 -5 -6 -37 -24 -93 -54 -12 -7 -35 -21 -52 -31 -69 -44 -80 -50
-87 -51 -4 0 -13 -6 -19 -12 -7 -7 -18 -13 -25 -13 -7 0 -14 -4 -16 -8 -2 -7
-78 -53 -178 -109 -14 -8 -95 -56 -180 -107 -126 -76 -156 -90 -161 -77 -4 9
-4 20 -1 25 3 5 4 37 3 70 -1 34 -2 68 -1 76 0 8 0 24 -1 35 -1 21 0 35 2 122
0 28 -2 56 -6 62 -3 6 -2 11 4 11 6 0 7 11 3 28 -4 15 -6 41 -5 57 5 53 5 144
-1 153 -2 4 -1 14 4 22 4 7 4 24 -1 37 -5 13 -5 23 1 23 5 0 5 12 0 29 -4 15
-5 34 0 40 4 7 5 23 2 37 -2 14 0 24 7 24 6 0 44 20 84 43 39 24 115 69 167
99 52 31 174 102 270 158 96 57 192 112 213 124 20 12 140 81 265 155 125 73
247 145 272 159 25 14 57 33 72 43 14 11 28 19 31 19 2 0 46 25 96 55 51 30
96 55 101 55 6 0 10 4 10 9 0 5 12 14 28 20 26 10 82 41 92 51 3 3 25 16 50
29 25 13 52 29 60 35 8 7 35 22 60 35 25 13 52 30 61 37 8 8 18 14 21 14 3 0
37 18 74 41 68 40 58 44 -23 8 -23 -11 -46 -19 -51 -19 -8 0 -82 -27 -137 -51
-20 -8 -172 -64 -250 -92 -22 -8 -102 -37 -178 -65 -136 -51 -138 -51 -167
-34 -25 15 -265 159 -311 187 -9 6 -34 20 -55 33 -22 12 -57 34 -79 47 -22 14
-58 35 -80 46 -22 12 -42 24 -45 28 -7 8 -35 25 -87 52 -24 13 -43 25 -43 29
0 3 -16 12 -35 20 -19 8 -35 17 -35 22 0 4 -4 8 -8 8 -9 0 -170 92 -187 108
-6 5 -15 11 -21 13 -28 11 -174 104 -174 110 0 4 17 18 38 30 20 13 42 28 48
34 7 5 31 22 55 37 24 15 98 64 164 108 66 44 146 97 178 118 32 20 68 45 78
54 18 15 24 15 52 2 18 -8 40 -17 50 -21z"/>
</g>
</svg>
