<?xml version="1.0" standalone="no"?>
<!DOCTYPE svg PUBLIC "-//W3C//DTD SVG 20010904//EN"
 "http://www.w3.org/TR/2001/REC-SVG-20010904/DTD/svg10.dtd">
<svg version="1.0" xmlns="http://www.w3.org/2000/svg"
 width="736.000000pt" height="736.000000pt" viewBox="0 0 736.000000 736.000000"
 preserveAspectRatio="xMidYMid meet">
<metadata>
Created by potrace 1.14, written by Peter Selinger 2001-2017
</metadata>
<g transform="translate(0.000000,736.000000) scale(0.100000,-0.100000)"
fill="#000000" stroke="none">
<path d="M3440 7353 c-21 -8 -150 -69 -325 -153 -82 -40 -193 -93 -245 -117
-95 -45 -217 -104 -405 -193 -266 -127 -452 -221 -470 -237 -53 -47 -98 -155
-89 -211 2 -12 6 -33 8 -46 13 -74 79 -152 155 -184 61 -25 160 -24 208 1 l32
17 43 -67 c24 -38 66 -104 93 -148 27 -44 53 -81 57 -83 5 -2 8 -7 8 -12 0
-11 103 -174 113 -178 4 -2 7 -8 7 -13 0 -9 34 -65 112 -182 21 -32 38 -59 38
-62 0 -2 19 -32 42 -67 24 -35 48 -72 54 -83 12 -22 8 -33 -95 -300 -84 -215
-85 -219 -55 -255 35 -41 62 -35 249 55 88 42 198 95 244 117 l85 41 20 -25
c40 -47 81 -97 106 -129 14 -18 30 -37 35 -43 15 -15 365 -442 390 -475 11
-14 44 -55 74 -91 29 -36 70 -85 90 -109 43 -52 70 -64 110 -50 29 10 55 56
46 82 -2 7 -6 23 -9 37 -2 14 -11 57 -20 95 -8 39 -17 82 -20 95 -2 14 -12 61
-21 105 -9 44 -19 91 -22 105 -2 14 -13 68 -25 120 -11 52 -22 105 -24 117 -2
12 -22 108 -45 215 -58 276 -56 256 -28 267 24 9 247 115 407 193 45 22 87 49
93 60 14 26 3 80 -19 94 -9 6 -105 39 -212 73 -107 35 -211 68 -230 74 -19 6
-40 16 -46 21 -10 9 -61 143 -69 180 -1 6 -5 18 -8 26 -7 16 -185 538 -243
709 -19 57 -33 105 -32 106 2 1 17 10 33 19 188 100 183 370 -9 468 -39 20
-154 33 -186 21z m135 -168 c54 -40 64 -103 27 -154 -19 -26 -88 -70 -110 -71
-7 0 -23 -9 -34 -20 -33 -30 -27 -77 26 -230 27 -74 49 -139 50 -145 1 -5 4
-14 8 -20 3 -5 13 -32 21 -60 17 -55 198 -583 216 -628 18 -45 13 -61 -21 -76
-61 -27 -323 -151 -358 -171 -47 -26 -61 -70 -33 -108 39 -53 42 -52 378 108
61 28 120 56 131 60 16 6 62 -4 163 -36 78 -25 141 -50 141 -55 0 -5 -4 -9 -9
-9 -5 0 -78 -33 -163 -74 -278 -133 -539 -257 -568 -270 -8 -3 -22 -10 -30
-15 -8 -5 -60 -31 -115 -57 -55 -26 -160 -76 -233 -111 -73 -34 -135 -63 -138
-63 -2 0 5 24 17 53 11 28 36 95 56 147 20 52 39 100 42 105 19 28 -6 79 -149
306 -84 134 -204 325 -266 424 -62 99 -118 185 -124 192 -5 7 -10 15 -10 19 0
3 -9 19 -21 36 -12 16 -20 31 -18 33 2 1 54 27 114 55 407 195 415 199 425
224 18 49 -8 96 -58 102 -16 2 -66 -16 -127 -45 -55 -27 -138 -66 -185 -89
-47 -22 -157 -75 -245 -118 -184 -89 -233 -98 -279 -55 -47 44 -51 117 -9 163
10 11 40 30 68 43 49 22 257 122 440 210 50 24 101 49 115 54 14 6 32 15 40
20 8 5 62 31 120 59 170 80 366 173 489 234 132 64 168 70 216 33z m239 -2035
c14 -73 17 -87 22 -110 3 -14 8 -34 10 -45 2 -11 15 -74 29 -140 28 -132 34
-160 39 -190 2 -11 7 -31 10 -45 3 -14 8 -36 11 -50 3 -14 9 -45 14 -70 19
-87 29 -96 -174 155 -49 61 -94 115 -100 121 -5 7 -24 29 -41 50 -18 22 -66
81 -108 132 -42 52 -76 97 -76 100 0 4 15 14 33 21 17 8 95 45 172 82 l140 66
7 -26 c4 -14 10 -37 12 -51z"/>
<path d="M2168 5760 c-14 -11 -30 -36 -36 -57 -5 -21 -121 -366 -257 -768
-289 -855 -316 -937 -319 -950 -1 -5 -4 -14 -7 -20 -4 -5 -41 -116 -83 -245
-43 -129 -80 -242 -83 -250 -15 -40 -204 -597 -207 -610 -2 -8 -12 -35 -21
-60 -9 -25 -18 -52 -20 -60 -2 -8 -4 -15 -5 -15 -1 0 -3 -7 -5 -15 -2 -8 -85
-256 -185 -550 -100 -294 -183 -542 -185 -550 -2 -8 -11 -35 -19 -59 -20 -56
-20 -74 2 -100 14 -18 133 -68 202 -86 19 -5 340 -113 360 -122 8 -3 20 -7 25
-8 6 -2 42 -13 80 -26 39 -13 72 -24 75 -24 3 -1 12 -5 20 -8 8 -4 38 -14 65
-22 28 -9 57 -19 65 -22 8 -4 17 -7 20 -7 13 -3 246 -81 250 -84 3 -2 5 -136
6 -298 1 -363 -10 -340 152 -343 59 -1 114 -2 122 -2 8 0 62 0 120 0 58 0 112
0 120 0 8 1 62 1 120 0 58 0 112 0 120 0 8 0 62 0 120 0 58 0 110 0 115 0 14
1 167 1 185 0 8 0 67 0 130 0 63 1 122 1 130 1 8 -1 44 -1 80 -1 36 1 72 1 80
0 8 0 44 0 80 0 36 1 73 1 83 1 9 0 44 0 76 1 53 1 128 -22 660 -201 417 -140
609 -200 625 -196 22 5 63 50 64 69 0 4 12 43 27 87 15 44 26 82 26 85 -1 3 6
19 14 35 8 16 15 32 15 35 0 3 5 23 11 45 l12 41 61 -1 c34 0 108 0 166 0 58
-1 110 -1 115 -1 6 0 51 1 100 1 50 1 95 1 100 0 6 -1 14 -2 19 -1 5 1 46 2
90 1 45 -1 88 -1 96 -1 8 1 62 1 120 0 58 0 112 0 120 0 8 0 73 1 144 2 121 1
130 2 152 24 l24 24 0 1465 c0 1062 -3 1472 -11 1490 -20 42 -78 48 -114 11
l-25 -24 0 -1421 0 -1420 -550 0 c-302 0 -550 3 -550 6 0 6 126 387 137 414 4
8 7 17 8 20 0 3 12 37 25 75 13 39 25 75 26 80 1 6 68 204 149 440 80 237 148
437 150 445 2 8 62 188 134 400 448 1328 621 1846 621 1861 0 36 -45 67 -150
103 -58 21 -114 41 -125 46 -22 10 -251 94 -355 130 -36 13 -69 27 -75 32 -5
4 -17 8 -27 8 -10 0 -26 4 -36 9 -14 8 -36 17 -62 26 -3 1 -12 4 -20 8 -8 3
-60 22 -115 42 -55 19 -107 39 -115 42 -8 3 -17 7 -20 7 -3 1 -18 6 -35 13
-73 27 -227 84 -530 194 -60 23 -119 44 -130 48 -34 14 -125 47 -245 91 -63
23 -131 48 -150 55 -74 29 -93 32 -121 18 -31 -15 -50 -58 -39 -88 8 -22 35
-48 54 -51 6 -1 47 -16 91 -32 44 -16 125 -46 180 -67 55 -20 134 -49 175 -65
41 -15 127 -47 190 -69 63 -23 124 -46 135 -51 18 -7 205 -76 280 -102 17 -5
39 -14 50 -19 11 -4 83 -31 160 -59 77 -28 147 -53 155 -57 8 -3 20 -7 25 -9
6 -1 84 -30 175 -64 91 -33 239 -88 330 -122 91 -33 168 -63 172 -67 5 -4
-106 -356 -112 -356 -1 0 -3 -7 -5 -15 -2 -8 -43 -130 -90 -270 -48 -140 -88
-262 -90 -270 -2 -8 -18 -53 -34 -100 -17 -47 -31 -85 -30 -85 0 0 -2 -7 -5
-15 -3 -8 -26 -76 -50 -150 -25 -74 -122 -362 -216 -640 -94 -278 -173 -512
-175 -520 -2 -8 -78 -235 -170 -505 -91 -269 -168 -497 -170 -505 -2 -8 -51
-154 -109 -325 -90 -266 -107 -310 -123 -307 -10 2 -178 58 -373 123 -195 66
-537 181 -760 256 -223 75 -535 181 -695 235 -159 54 -301 101 -314 104 -13 3
-36 11 -52 19 -15 8 -36 15 -47 15 -10 0 -22 3 -26 7 -3 4 -12 8 -19 9 -7 1
-140 46 -297 99 -157 53 -292 98 -300 101 -8 2 -94 31 -190 64 -96 34 -182 63
-190 65 -28 7 -595 197 -615 206 -11 4 -54 19 -95 33 -41 14 -75 28 -74 33 2
15 37 128 43 138 3 6 6 15 7 20 3 12 21 68 204 610 77 231 143 427 147 435 3
8 7 20 9 25 1 6 23 71 49 145 25 74 48 142 50 150 2 8 96 287 208 620 112 333
250 742 306 910 57 168 105 312 108 320 3 8 52 155 109 325 58 171 109 322
115 337 12 28 8 29 84 -3 47 -19 117 -39 139 -39 29 0 66 39 66 72 0 38 -31
66 -106 94 -38 14 -73 26 -79 28 -5 1 -36 12 -68 24 -71 27 -87 27 -119 2z
m237 -4887 c171 -57 317 -107 325 -110 8 -4 17 -7 20 -8 22 -5 507 -169 515
-174 6 -3 18 -7 29 -8 10 -2 26 -8 35 -13 10 -6 -211 -9 -625 -10 -505 0 -643
3 -646 13 -3 10 -3 375 1 416 1 8 7 11 19 6 9 -4 157 -54 327 -112z"/>
<path d="M5522 4989 c-48 -18 -61 -85 -24 -122 22 -21 25 -21 437 -22 l415 0
0 -76 c0 -88 15 -115 67 -125 26 -5 37 -1 57 19 25 25 26 30 26 155 0 115 -2
130 -20 150 -12 12 -26 23 -33 23 -49 5 -911 3 -925 -2z"/>
<path d="M4514 4498 c-23 -11 -44 -47 -40 -69 1 -8 13 -41 25 -74 25 -64 35
-209 17 -250 -5 -11 -10 -26 -12 -33 -6 -32 -49 -104 -84 -144 -86 -99 -204
-149 -336 -143 -43 1 -92 8 -109 15 -120 50 -181 97 -235 184 -39 62 -77 84
-113 64 -31 -16 -46 -39 -47 -68 0 -29 55 -118 108 -173 33 -34 119 -101 132
-102 3 -1 19 -8 35 -17 134 -71 340 -71 498 1 45 21 147 97 175 130 70 86 124
194 139 279 8 47 11 184 4 197 -3 6 -6 17 -7 25 -3 53 -48 154 -77 175 -25 17
-43 18 -73 3z"/>
<path d="M2651 3139 c-24 -14 -31 -26 -31 -50 0 -50 15 -65 97 -94 43 -15 85
-30 93 -33 8 -3 20 -6 25 -8 17 -4 609 -204 625 -211 8 -3 20 -7 25 -9 20 -5
227 -75 550 -184 182 -62 341 -112 354 -112 28 -1 71 43 71 70 -1 48 -25 65
-156 109 -71 23 -129 43 -129 43 0 1 -566 193 -590 200 -16 4 -218 72 -449
150 -230 78 -426 143 -436 145 -10 2 -31 -5 -49 -16z"/>
<path d="M2420 2473 c-47 -17 -66 -76 -36 -115 11 -15 49 -35 81 -44 23 -5
262 -86 280 -94 11 -4 29 -10 40 -13 11 -3 314 -104 674 -226 360 -122 667
-221 682 -221 50 0 86 71 56 111 -19 24 -37 32 -267 109 -118 39 -222 74 -230
77 -8 3 -19 7 -25 9 -5 1 -98 32 -205 69 -107 37 -202 68 -210 70 -8 2 -186
62 -395 133 -410 139 -422 143 -445 135z"/>
<path d="M5100 1434 c-30 -8 -73 -16 -95 -19 -22 -3 -49 -9 -60 -12 -11 -3
-31 -7 -45 -9 -14 -1 -36 -5 -50 -9 -14 -3 -34 -8 -45 -9 -11 -2 -34 -6 -51
-10 -17 -3 -102 -20 -190 -37 -87 -17 -170 -32 -184 -35 -14 -2 -36 -7 -50 -9
-14 -3 -38 -8 -55 -11 -16 -2 -73 -13 -125 -24 -52 -10 -108 -21 -125 -23 -16
-3 -41 -8 -55 -11 -14 -3 -36 -8 -50 -10 -14 -3 -50 -10 -80 -16 -30 -6 -66
-13 -80 -15 -14 -2 -50 -9 -80 -15 -30 -6 -66 -13 -80 -16 -14 -3 -72 -14
-130 -25 -58 -11 -116 -22 -130 -24 -14 -2 -61 -11 -105 -20 -70 -15 -106 -22
-152 -29 -22 -4 -27 -16 -7 -16 11 0 24 -4 30 -9 5 -6 20 -12 34 -15 26 -5
879 -290 915 -305 11 -5 106 -37 210 -72 105 -34 272 -90 373 -124 160 -54
184 -60 191 -46 6 12 91 258 96 281 1 3 4 12 8 20 21 53 228 682 225 684 -1 1
-28 -3 -58 -10z"/>
</g>
</svg>
