<svg width="37" height="46" viewBox="0 0 37 46" fill="none" xmlns="http://www.w3.org/2000/svg">
<path d="M10.1188 6.93368C9.94488 6.93368 9.77761 6.83475 9.69846 6.66808C9.58695 6.43604 9.68587 6.15725 9.9179 6.04633L13.5638 4.3034C13.7935 4.19368 14.0741 4.29081 14.185 4.52404C14.2965 4.75607 14.1976 5.03427 13.9662 5.14579L10.3202 6.88871C10.2555 6.91929 10.1871 6.93368 10.1188 6.93368Z" fill="black"/>
<path d="M16.9148 11.8285C16.7403 11.8285 16.573 11.7296 16.4927 11.5605C16.383 11.3255 16.4837 11.0485 16.7151 10.9388L19.6476 9.55918C19.8832 9.44766 20.1584 9.54839 20.2675 9.78162C20.379 10.0155 20.2783 10.2942 20.0451 10.4034L17.1144 11.7836C17.0497 11.8141 16.9813 11.8285 16.9148 11.8285Z" fill="black"/>
<path d="M21.132 20.6007C20.9953 20.6007 20.8622 20.5414 20.7705 20.4287L15.9194 14.508C15.7557 14.3083 15.7845 14.0133 15.9836 13.8503C16.1814 13.6884 16.4764 13.7154 16.6395 13.9168L20.2854 18.3656L19.1121 12.7339C19.0599 12.4827 19.2218 12.2344 19.4736 12.1823C19.7194 12.1301 19.9731 12.2902 20.0252 12.5438L21.5883 20.0383C21.6332 20.2488 21.5271 20.4628 21.3335 20.554C21.2687 20.5845 21.2004 20.6007 21.132 20.6007Z" fill="black"/>
<path d="M35.6583 43.4914H27.6367C27.3795 43.4914 27.1697 43.2834 27.1697 43.0244C27.1697 42.7671 27.3795 42.5591 27.6367 42.5591H35.1924V24.9583C35.1924 24.6999 35.4011 24.4913 35.6583 24.4913C35.9167 24.4913 36.1253 24.6999 36.1253 24.9583V43.0244C36.1253 43.2834 35.9167 43.4914 35.6583 43.4914Z" fill="black"/>
<path d="M35.6582 16.9997C35.401 16.9997 35.1924 16.7917 35.1924 16.5327V15.7137H30.1848C29.9258 15.7137 29.7178 15.505 29.7178 15.246C29.7178 14.9894 29.9258 14.7808 30.1848 14.7808H35.6582C35.9167 14.7808 36.1253 14.9894 36.1253 15.246V16.5327C36.1253 16.7917 35.9167 16.9997 35.6582 16.9997Z" fill="black"/>
<path d="M19.3461 43.4914H7.88006C7.62284 43.4914 7.41479 43.2834 7.41479 43.0244V39.1644C7.41479 38.906 7.62284 38.6973 7.88006 38.6973C8.13907 38.6973 8.34712 38.906 8.34712 39.1644V42.5591H19.3461C19.6027 42.5591 19.8114 42.7672 19.8114 43.0244C19.8114 43.2834 19.6027 43.4914 19.3461 43.4914Z" fill="black"/>
<path d="M26.792 46C26.744 46 26.6936 45.9928 26.6433 45.9766L0.318871 37.1091C0.0742499 37.0263 -0.0570544 36.7619 0.0238866 36.5179L8.89142 10.1917C8.93099 10.073 9.01733 9.97406 9.13245 9.9219C9.24576 9.86614 9.37647 9.85894 9.49518 9.90391L11.0696 10.4807C11.3101 10.5706 11.4342 10.8386 11.346 11.0809C11.2579 11.3219 10.9923 11.446 10.7459 11.3579L9.62289 10.9442L1.05693 36.374L26.4994 44.9418L35.0707 19.4885L21.7215 14.5775C21.4804 14.4882 21.3551 14.2202 21.4445 13.9791C21.5344 13.7369 21.8024 13.6128 22.0446 13.7009L35.8196 18.7696C36.057 18.856 36.1811 19.1186 36.102 19.3572L27.2344 45.6822C27.1679 45.8777 26.9862 46 26.792 46Z" fill="black"/>
<path d="M22.9021 30.7729C22.8535 30.7729 22.8031 30.7657 22.7528 30.7495L12.1747 27.1863C11.9301 27.1042 11.8006 26.8398 11.8815 26.5952C11.9642 26.3511 12.225 26.218 12.4727 26.3008L23.0514 29.864C23.2954 29.9467 23.4267 30.2105 23.3439 30.4551C23.2792 30.6512 23.0963 30.7729 22.9021 30.7729Z" fill="black"/>
<path d="M21.3372 35.0154C21.2886 35.0154 21.2383 35.0082 21.1879 34.992L10.611 31.4288C10.367 31.3479 10.2357 31.0823 10.3166 30.8376C10.3994 30.5954 10.6614 30.4641 10.9096 30.5451L21.4877 34.1083C21.7305 34.1892 21.8618 34.4548 21.7809 34.6994C21.7143 34.8937 21.5326 35.0154 21.3372 35.0154Z" fill="black"/>
<path d="M21.1356 23.3036C20.7585 23.3054 20.3807 23.2442 20.0126 23.1237C19.0995 22.8257 18.3578 22.1878 17.9243 21.3322C17.8074 21.1026 17.8992 20.822 18.1294 20.705C18.3596 20.5881 18.6414 20.6817 18.7565 20.9101C19.4214 22.2201 21.0259 22.7466 22.3323 22.0816C22.9667 21.7615 23.4391 21.2117 23.6604 20.5378C23.881 19.8627 23.827 19.1402 23.5057 18.5077C23.3887 18.2756 23.4823 17.9956 23.7107 17.8787C23.9421 17.7618 24.2227 17.8571 24.3397 18.0856C24.7725 18.9423 24.8463 19.9166 24.5477 20.8274C24.2479 21.7399 23.6118 22.4822 22.7544 22.915C22.2442 23.174 21.6908 23.3036 21.1356 23.3036Z" fill="black"/>
<path d="M27.7681 36.967L14.5681 39.5061L25.6546 43.2402L27.7681 36.967Z" fill="#0D7CC5"/>
<path d="M10.1187 5.99957C10.2752 5.99957 10.4263 6.07871 10.5144 6.21841L14.4673 12.4934C14.5465 12.6175 14.5608 12.7716 14.5087 12.9101L13.7358 14.9103L21.7088 11.0988L19.6673 10.4429C19.5294 10.398 19.4179 10.2888 19.3693 10.1503L16.9669 3.13306C16.8896 2.90882 16.9939 2.6624 17.2073 2.55988L17.7487 2.30326C18.1061 2.13239 18.259 1.7013 18.0863 1.34156C17.9154 0.984224 17.4843 0.831335 17.127 1.00401L8.75708 5.00549C8.5844 5.08823 8.4531 5.23393 8.38835 5.41559C8.32539 5.59666 8.33439 5.79272 8.41713 5.96539C8.50167 6.13927 8.64736 6.27057 8.82663 6.33352C9.01009 6.39828 9.20435 6.38749 9.37823 6.30475L9.91783 6.04633C9.98199 6.01576 10.0503 5.99957 10.1187 5.99957ZM12.8791 16.3049C12.764 16.3049 12.6506 16.2617 12.5625 16.1807C12.4204 16.0512 12.3736 15.848 12.4438 15.6705L13.553 12.7914L9.94661 7.06679L9.78113 7.14593C9.38182 7.33599 8.93275 7.36118 8.51785 7.21428C8.10116 7.06679 7.7666 6.76641 7.57594 6.3677C7.38588 5.97079 7.3607 5.52172 7.50819 5.10442C7.65508 4.68772 7.95546 4.35497 8.35417 4.16311L16.7241 0.161024C17.1234 -0.0290373 17.5725 -0.0506217 17.9873 0.0950721C18.404 0.240166 18.7386 0.542346 18.9293 0.939257C19.3208 1.76246 18.9718 2.75233 18.151 3.14565L17.9856 3.22479L20.1758 9.62572L23.1124 10.5688C23.2935 10.6264 23.423 10.7901 23.4356 10.9819C23.4482 11.1726 23.3438 11.3525 23.1694 11.4334L13.0799 16.2599C13.0152 16.2905 12.9474 16.3049 12.8791 16.3049Z" fill="black"/>
</svg>
